<svg xmlns="http://www.w3.org/2000/svg" viewBox="0 0 81.94444 54.339"><title>360-photo-o-white</title><path d="M81.869,14.995c.011-.14.037-.278.037-.419l-.001-.013a.93683.93683,0,0,0,.039-.255C81.562,6.286,63.567,0,40.975,0,17.998,0,0,6.402,0,14.575c0,.139.026.275.037.413V40.939a.89931.89931,0,0,0,.028.137.94249.94249,0,0,0-.042.14c-.015.171-.023.341-.023.511,0,5.301,7.501,10.008,20.065,12.591a.99731.99731,0,0,0,1.181-.778.81844.81844,0,0,0,0-.131.95076.95076,0,0,0,.028-.141V30.913a105.06236,105.06236,0,0,1,19.581-1.762A104.92225,104.92225,0,0,1,60.631,30.95V53.266a1.09734,1.09734,0,0,0,.027.141,1.14563,1.14563,0,0,0,.001.131.99731.99731,0,0,0,1.181.778c12.564-2.583,20.065-7.29,20.065-12.591a5.54685,5.54685,0,0,0-.052-.715c.002-.025.015-.047.015-.072V14.995ZM62.632,29.304V26.991c8.31-1.801,14.307-4.543,17.237-7.771V37.162C76.907,33.832,70.752,31.076,62.632,29.304Zm-43.357-.007C11.283,31.03,5.1,33.712,2.037,36.951V19.22c2.93,3.229,8.928,5.971,17.238,7.771Zm0,22.797C8.745,49.743,2.001,45.728,2.001,41.726c0-.109.005-.221.015-.331a1.00905,1.00905,0,0,0-.024-.226.92949.92949,0,0,0,.046-.23v-.636a.9829.9829,0,0,0,.269-.334c1.739-3.61,8.146-6.699,16.969-8.642V52.094ZM40.856,27.151a105.9621,105.9621,0,0,0-19.581,1.738V26.341c0-.018-.009-.032-.01-.049a.99027.99027,0,0,0-.779-1.082C9.561,22.966,2.418,18.954,2.037,14.914v-.64c0-.016-.008-.029-.009-.045C2.606,8.257,18.102,2,40.975,2,62.678,2,77.91,7.73,79.755,13.417a.83477.83477,0,0,0,.011.15,3.74969,3.74969,0,0,1,.115.648c-.001.021-.012.038-.012.059v.644c-.386,4.039-7.528,8.049-18.449,10.292a.98951.98951,0,0,0-.778,1.082c-.001.017-.01.031-.01.049v2.554A106.62856,106.62856,0,0,0,40.856,27.151ZM62.632,52.094V31.368c9.819,2.185,16.564,5.772,17.16,9.825a1.01428,1.01428,0,0,0,.096.281c.006.084.019.167.019.251C79.907,45.728,73.161,49.743,62.632,52.094Z" style="fill:#fff"/><path d="M44.909,10.573a.99837.99837,0,0,0-1.403.011l-6.66,6.66-2.651-2.651a1.02925,1.02925,0,0,0-1.414,0L24.07,23.305a.99985.99985,0,1,0,1.414,1.414l8.004-8.005,2.651,2.651.004.003,4.044,4.043a.99985.99985,0,0,0,1.414-1.414l-3.34-3.34,5.963-5.963,11.689,11.33a.99961.99961,0,1,0,1.392-1.435Z" style="fill:#fff"/><path d="M33,11.451a3.698,3.698,0,1,0-3.698-3.698A3.70229,3.70229,0,0,0,33,11.451Zm0-5.396a1.698,1.698,0,1,1-1.698,1.698A1.69964,1.69964,0,0,1,33,6.055Z" style="fill:#fff"/></svg>