<svg xmlns="http://www.w3.org/2000/svg" viewBox="0 0 81.905 52.337"><title>360-photo-white</title><path d="M81.852,39.008c.002-.024.016-.045.016-.07V12.993a6.0869,6.0869,0,0,1-.545,2.049c-.029.066-.059.133-.092.199a7.42553,7.42553,0,0,1-.496.857c-.027.043-.051.086-.08.129a9.80882,9.80882,0,0,1-.74.933c-2.91,3.253-8.924,6.021-17.285,7.831v-.002c-.271.06-.531.123-.809.18a1.01435,1.01435,0,0,1-.203.021,1.00152,1.00152,0,0,1-.979-.799c-.006-.033.004-.064,0-.098v.002a.99169.99169,0,0,1,.779-1.085c11.23-2.307,18.486-6.481,18.486-10.636a3.84282,3.84282,0,0,0-.141-1.009,1.116,1.116,0,0,1-.01-.115c-1.166-3.703-8.012-7.428-18.639-9.582L55.993.997A109.07116,109.07116,0,0,0,40.972,0C18.096,0,2.599,6.26,2.025,12.231h0c-.011.114-.027.229-.027.343,0,4.154,7.256,8.329,18.485,10.636a.98891.98891,0,0,1,.778,1.08v-.002a.88486.88486,0,0,1,0,.103.99733.99733,0,0,1-1.181.778c-.276-.057-.537-.12-.809-.179v.002c-8.338-1.806-14.343-4.563-17.263-7.805A7.07014,7.07014,0,0,1,.032,12.982V38.938a.95063.95063,0,0,0,.028.139c-.008.046-.033.087-.038.137-.016.171-.022.34-.022.511,0,5.3,7.501,10.007,20.065,12.591a.89833.89833,0,0,0,1.182-.912,1.05167,1.05167,0,0,0,.027-.138V28.911a105.07035,105.07035,0,0,1,19.581-1.762A104.91135,104.91135,0,0,1,60.63,28.948V51.265a.80621.80621,0,0,0,.029.138.74937.74937,0,0,0,0,.134,1.00052,1.00052,0,0,0,.979.799.98022.98022,0,0,0,.201-.021c12.564-2.584,20.066-7.291,20.066-12.591A5.38917,5.38917,0,0,0,81.852,39.008ZM32.998,2.054a3.698,3.698,0,1,1-3.699,3.698A3.7023,3.7023,0,0,1,32.998,2.054Zm-8.93,19.249,8.711-8.711a.99889.99889,0,0,1,1.414,0l2.651,2.651,6.659-6.66a.99961.99961,0,0,1,1.404-.011L57.304,20.588a1,1,0,1,1-1.393,1.435L44.222,10.693,38.26,16.656l3.339,3.339a.99985.99985,0,1,1-1.414,1.414l-4.042-4.041-.006-.004-2.651-2.651-8.004,8.004a.99985.99985,0,1,1-1.414-1.414Zm-4.794,28.79C8.744,47.741,2,43.726,2,39.725c0-.11.005-.221.015-.331a1.01177,1.01177,0,0,0-.024-.227.97952.97952,0,0,0,.046-.229v-.636a.99149.99149,0,0,0,.27-.335c1.739-3.61,8.146-6.699,16.969-8.642V50.093Zm43.356,0V29.367c9.82,2.184,16.564,5.772,17.16,9.825a1.043,1.043,0,0,0,.096.282c.006.084.02.167.02.25C79.905,43.726,73.161,47.741,62.63,50.093Z" style="fill:#fff"/><circle cx="32.998" cy="5.752" r="1.698" style="fill:#fff"/></svg>