<svg xmlns="http://www.w3.org/2000/svg" viewBox="0 0 82.19444 54.589"><title>360-photo-o-wihte-o</title><path d="M81.994,15.12c.011-.14.037-.278.037-.419l-.001-.013a.93683.93683,0,0,0,.039-.255C81.687,6.411,63.692.125,41.1.125,18.123.125.125,6.527.125,14.7c0,.139.026.275.037.413V41.064a.89931.89931,0,0,0,.028.137.94249.94249,0,0,0-.042.14c-.015.171-.023.341-.023.511,0,5.301,7.501,10.008,20.065,12.591a.99731.99731,0,0,0,1.181-.778.81844.81844,0,0,0,0-.131.95076.95076,0,0,0,.028-.141V31.038A105.06236,105.06236,0,0,1,40.98,29.276a104.92225,104.92225,0,0,1,19.776,1.799V53.391a1.09734,1.09734,0,0,0,.027.141,1.14563,1.14563,0,0,0,.001.131.99731.99731,0,0,0,1.181.778C74.529,51.858,82.03,47.151,82.03,41.85a5.54685,5.54685,0,0,0-.052-.715c.002-.025.015-.047.015-.072V15.12ZM62.757,29.429V27.116c8.31-1.801,14.307-4.543,17.237-7.771V37.287C77.032,33.957,70.877,31.201,62.757,29.429ZM19.4,29.422c-7.992,1.733-14.175,4.415-17.238,7.654V19.345c2.93,3.229,8.928,5.971,17.238,7.771Zm0,22.797C8.87,49.868,2.126,45.853,2.126,41.851c0-.109.005-.221.015-.331a1.00905,1.00905,0,0,0-.024-.226.92949.92949,0,0,0,.046-.23v-.636a.9829.9829,0,0,0,.269-.334c1.739-3.61,8.146-6.699,16.969-8.642V52.219ZM40.981,27.276A105.9621,105.9621,0,0,0,21.4,29.014V26.466c0-.018-.009-.032-.01-.049a.99027.99027,0,0,0-.779-1.082C9.686,23.091,2.543,19.079,2.162,15.039v-.64c0-.016-.008-.029-.009-.045C2.731,8.382,18.227,2.125,41.1,2.125c21.703,0,36.935,5.73,38.78,11.417a.83477.83477,0,0,0,.011.15,3.74969,3.74969,0,0,1,.115.648c-.001.021-.012.038-.012.059v.644c-.386,4.039-7.528,8.049-18.449,10.292a.98951.98951,0,0,0-.778,1.082c-.001.017-.01.031-.01.049V29.02A106.62856,106.62856,0,0,0,40.981,27.276ZM62.757,52.219V31.493c9.819,2.185,16.564,5.772,17.16,9.825a1.01428,1.01428,0,0,0,.096.281c.006.084.019.167.019.251C80.032,45.853,73.286,49.868,62.757,52.219Z" style="fill:none;stroke:#fff;stroke-miterlimit:10;stroke-width:0.25px"/><path d="M45.034,10.698a.99837.99837,0,0,0-1.403.011l-6.66,6.66L34.32,14.718a1.02925,1.02925,0,0,0-1.414,0L24.195,23.43a.99985.99985,0,1,0,1.414,1.414l8.004-8.005,2.651,2.651.004.003,4.044,4.043a.99985.99985,0,0,0,1.414-1.414l-3.34-3.34,5.963-5.963,11.689,11.33a.99961.99961,0,1,0,1.392-1.435Z" style="fill:none;stroke:#fff;stroke-miterlimit:10;stroke-width:0.25px"/><path d="M33.125,11.576a3.698,3.698,0,1,0-3.698-3.698A3.70229,3.70229,0,0,0,33.125,11.576Zm0-5.396a1.698,1.698,0,1,1-1.698,1.698A1.69964,1.69964,0,0,1,33.125,6.18Z" style="fill:none;stroke:#fff;stroke-miterlimit:10;stroke-width:0.25px"/></svg>